<?xml version="1.0" standalone="no"?>
<!DOCTYPE svg PUBLIC "-//W3C//DTD SVG 20010904//EN"
 "http://www.w3.org/TR/2001/REC-SVG-20010904/DTD/svg10.dtd">
<svg version="1.0" xmlns="http://www.w3.org/2000/svg"
 width="700.000000pt" height="700.000000pt" viewBox="0 0 700.000000 700.000000"
 preserveAspectRatio="xMidYMid meet">
<metadata>
Created by potrace 1.14, written by Peter Selinger 2001-2017
</metadata>
<g transform="translate(0.000000,700.000000) scale(0.100000,-0.100000)"
fill="#000000" stroke="none">
<path d="M3178 6995 c-2 -1 -59 -6 -127 -9 -67 -4 -139 -9 -160 -11 -20 -2
-65 -7 -101 -10 -35 -3 -98 -10 -140 -16 -41 -5 -95 -12 -120 -15 -25 -3 -52
-7 -60 -9 -8 -2 -37 -7 -65 -11 -27 -3 -59 -8 -70 -10 -11 -2 -36 -7 -55 -10
-79 -15 -181 -37 -311 -68 -372 -90 -737 -238 -973 -396 -172 -115 -289 -237
-357 -372 -53 -105 -56 -140 -54 -533 1 -198 5 -370 8 -382 46 -179 195 -356
428 -507 88 -57 261 -146 359 -186 30 -12 69 -28 85 -35 36 -16 233 -85 255
-90 8 -2 71 -19 140 -38 111 -31 200 -53 241 -61 8 -1 28 -5 44 -9 17 -4 42
-9 58 -12 15 -3 37 -7 50 -10 100 -20 365 -59 472 -70 33 -3 83 -8 110 -11
177 -18 417 -28 675 -28 192 0 434 9 545 19 22 2 76 6 120 10 44 3 91 7 105
10 14 2 48 6 75 10 44 5 197 27 295 42 19 3 98 18 175 35 77 16 151 31 165 34
117 22 476 137 620 198 149 64 419 211 450 246 3 3 25 21 50 40 157 122 263
275 293 420 21 100 17 746 -5 816 -124 400 -681 717 -1603 913 -63 13 -275 49
-335 56 -25 3 -56 7 -70 10 -14 2 -54 7 -90 10 -36 3 -76 8 -90 10 -14 2 -63
7 -110 10 -47 4 -103 9 -125 11 -45 5 -792 14 -797 9z"/>
<path d="M584 3528 c1 -640 3 -697 19 -748 121 -367 604 -666 1387 -860 86
-21 171 -41 190 -44 60 -10 95 -17 110 -21 8 -3 33 -7 55 -10 22 -3 65 -10 95
-15 30 -5 78 -12 105 -15 28 -3 61 -7 75 -10 29 -5 88 -12 183 -20 38 -3 81
-8 97 -10 210 -26 1062 -26 1201 0 8 2 53 6 100 10 46 4 91 8 99 10 8 2 44 6
80 10 82 8 112 13 300 46 63 11 126 22 140 25 14 3 38 8 55 10 133 25 564 152
667 197 18 8 58 25 88 37 178 72 419 218 537 325 119 108 213 250 239 360 9
39 13 1415 4 1415 -4 0 -25 -13 -46 -28 -126 -91 -400 -237 -579 -307 -149
-59 -503 -173 -588 -189 -12 -2 -42 -9 -67 -15 -49 -12 -71 -18 -110 -26 -14
-3 -36 -8 -50 -11 -66 -14 -483 -83 -540 -90 -36 -3 -76 -8 -90 -9 -14 -2 -61
-6 -105 -10 -44 -3 -96 -8 -115 -10 -225 -27 -1010 -27 -1240 0 -19 2 -71 6
-115 10 -44 3 -89 8 -100 10 -11 3 -45 7 -75 10 -427 42 -992 179 -1385 334
-111 45 -362 167 -400 197 -18 13 -35 24 -39 24 -4 0 -40 23 -81 50 -42 28
-81 53 -89 56 -11 4 -13 -109 -12 -688z"/>
<path d="M584 1488 c2 -296 6 -415 15 -448 48 -164 192 -334 401 -472 252
-166 549 -287 955 -389 110 -27 211 -52 225 -54 26 -4 237 -41 280 -49 14 -3
48 -7 75 -10 56 -6 127 -16 165 -22 14 -2 59 -6 100 -10 41 -3 86 -7 98 -9
167 -26 978 -26 1202 0 19 2 64 6 100 9 63 6 94 9 190 21 57 7 287 43 320 50
14 3 41 8 60 11 19 3 73 15 120 26 47 11 96 22 110 24 58 11 290 78 398 115
570 197 921 465 1004 769 8 32 12 163 13 443 1 218 0 397 -3 397 -3 0 -27 -16
-53 -35 -27 -19 -54 -35 -59 -35 -6 0 -10 -4 -10 -8 0 -5 -15 -16 -32 -25 -18
-9 -60 -33 -93 -52 -50 -30 -235 -122 -310 -155 -107 -47 -373 -139 -510 -176
-212 -59 -560 -135 -677 -148 -64 -8 -119 -16 -143 -21 -11 -2 -45 -7 -75 -10
-30 -3 -66 -8 -80 -10 -14 -3 -61 -7 -105 -10 -44 -4 -91 -8 -105 -10 -14 -2
-74 -7 -135 -11 -60 -3 -135 -8 -165 -10 -30 -2 -179 -4 -330 -4 -248 -2 -373
2 -555 15 -178 13 -222 16 -245 20 -14 2 -54 7 -90 10 -383 36 -928 156 -1275
281 -287 103 -492 204 -702 346 -40 26 -74 48 -76 48 -2 0 -4 -181 -3 -402z"/>
</g>
</svg>
